<svg version="1.1" viewBox="0 0 24 24" width="32" height="32" xmlns="http://www.w3.org/2000/svg" fill="currentColor"><path d="m20.867 10.855c-0.035487-0.33717-0.088733-0.72759-0.19521-1.1535-0.10648-0.42591-0.28394-0.88732-0.51464-1.3842-0.24845-0.47915-0.55013-0.99379-0.9583-1.4729-0.15972-0.19521-0.33718-0.37267-0.51464-0.56788 0.28394-1.118-0.33718-2.0941-0.33718-2.0941-1.0825-0.070953-1.7569 0.33717-2.0053 0.51464-0.035487-0.017789-0.088733-0.035477-0.12422-0.053266-0.17746-0.070953-0.37267-0.14197-0.56788-0.21296-0.19521-0.053266-0.39042-0.12422-0.58563-0.15972-0.19521-0.053266-0.40816-0.088743-0.62112-0.12422-0.0355 0-0.07098-0.01779-0.10648-0.01779-0.4614-1.4907-1.8101-2.1296-1.8101-2.1296-1.5439 0.9938-1.8456 2.3248-1.8456 2.3248s0 0.035477-0.01775 0.070953c-0.08873 0.017789-0.15972 0.053266-0.24845 0.070953-0.10648 0.035477-0.2307 0.070953-0.33718 0.12422-0.10648 0.053266-0.2307 0.088743-0.33718 0.14198-0.2307 0.10647-0.44365 0.21295-0.67436 0.33717-0.21296 0.12423-0.42591 0.24845-0.62112 0.39042-0.035497-0.017687-0.053236-0.035477-0.053236-0.035477-2.0763-0.79858-3.9219 0.15972-3.9219 0.15972-0.15972 2.2183 0.83407 3.6025 1.0293 3.8509-0.053235 0.14197-0.088733 0.2662-0.14197 0.40817-0.15972 0.4969-0.26619 1.0115-0.33718 1.5439-0.017748 0.070953-0.017748 0.15972-0.035487 0.2307-1.9166 0.94055-2.4845 2.8926-2.4845 2.8926 1.5972 1.8456 3.4783 1.9521 3.4783 1.9521 0.2307 0.4259 0.51464 0.83407 0.81633 1.2067 0.12422 0.15972 0.26619 0.3017 0.40816 0.46141-0.58563 1.6682 0.088733 3.0701 0.088733 3.0701 1.7924 0.07095 2.9636-0.78083 3.2121-0.97605 0.17746 0.05327 0.35492 0.10648 0.53239 0.15972 0.55013 0.14197 1.118 0.2307 1.6681 0.24845h0.42591 0.30168c0.83408 1.2067 2.3248 1.3665 2.3248 1.3665 1.047-1.118 1.118-2.2005 1.118-2.449v-0.01779-0.03548-0.05327c0.21296-0.15972 0.42591-0.31943 0.63887-0.4969 0.42591-0.37267 0.78084-0.81632 1.1003-1.2777 0.0355-0.03548 0.05324-0.08874 0.08873-0.12422 1.189 0.07095 2.0231-0.74535 2.0231-0.74535-0.19521-1.2422-0.90506-1.8456-1.047-1.9521l-0.0355-0.03558-0.01775-0.01769c0-0.07095 0.01775-0.14197 0.01775-0.2307 0.01775-0.14198 0.01775-0.2662 0.01775-0.40816v-0.17754-0.03548-0.19522-0.10648c0-0.03548 0-0.07095-0.01775-0.10647l-0.0355-0.21296c-0.01775-0.14197-0.05324-0.26619-0.07098-0.40817-0.12422-0.53238-0.33718-1.047-0.60337-1.4907-0.28394-0.4614-0.62112-0.85182-1.0115-1.2067-0.39041-0.33716-0.81632-0.6211-1.2777-0.81631-0.4614-0.21296-0.92281-0.33718-1.402-0.39042-0.2307-0.035477-0.47915-0.035477-0.70985-0.035477h-0.26621-0.08873c-0.12422 0.017789-0.24845 0.035477-0.35493 0.053266-0.47915 0.088743-0.9228 0.2662-1.3132 0.4969-0.39042 0.2307-0.7276 0.53239-1.0115 0.86957-0.28394 0.33718-0.4969 0.6921-0.63887 1.0825-0.14197 0.37267-0.2307 0.78084-0.24845 1.1535v0.28394 0.07095 0.07095c0 0.05327 0 0.08874 0.01775 0.14197 0.01775 0.1952 0.05324 0.37267 0.10648 0.55013 0.10648 0.35492 0.26619 0.67435 0.47915 0.9583 0.21296 0.28394 0.44366 0.4969 0.70985 0.67435 0.26619 0.17746 0.53239 0.3017 0.81633 0.39042 0.28394 0.08874 0.55014 0.12423 0.79858 0.10648h0.08873 0.05324 0.05323 0.08873 0.0355 0.05324c0.0355 0 0.07098-0.01779 0.08873-0.01779 0.0355 0 0.05324-0.01769 0.08873-0.01769 0.05324-0.01779 0.12422-0.03548 0.17746-0.05327 0.10648-0.03548 0.21296-0.08874 0.31943-0.12422 0.10648-0.05327 0.19521-0.10648 0.26619-0.15972 0.01775-0.01779 0.05324-0.03548 0.07098-0.05327 0.08873-0.07095 0.10648-0.1952 0.03549-0.28394-0.07098-0.07095-0.17746-0.08874-0.26619-0.05327-0.01775 0.01769-0.03549 0.01769-0.07098 0.03548-0.07098 0.03548-0.15972 0.07095-0.2307 0.08874-0.08873 0.01779-0.17746 0.05327-0.26619 0.07095-0.05324 0-0.08873 0.01779-0.14197 0.01779h-0.07098-0.07098-0.07098-0.08873s-0.01775 0 0 0h-0.0355-0.03549c-0.01775 0-0.05324 0-0.07098-0.01779-0.19521-0.03548-0.40816-0.08874-0.60337-0.17746-0.19521-0.08874-0.39042-0.21295-0.55013-0.37267-0.17746-0.15972-0.31943-0.33718-0.44366-0.55013-0.12422-0.21295-0.19521-0.44365-0.2307-0.67435-0.01775-0.12423-0.0355-0.24845-0.01775-0.37268v-0.10647 0-0.03558-0.05327c0-0.07095 0.01775-0.12423 0.03549-0.19521 0.08873-0.53238 0.35493-1.047 0.76309-1.4374 0.10648-0.10647 0.21296-0.1952 0.33718-0.26619 0.12422-0.08874 0.24845-0.15972 0.37267-0.21296 0.12422-0.05327 0.26619-0.10647 0.40816-0.14197 0.14197-0.03548 0.28394-0.07095 0.42591-0.07095 0.07098 0 0.14197-0.01779 0.21296-0.01779h0.05324 0.08874c0.01775 0 0 0 0 0h0.07098c0.15972 0.01779 0.31943 0.03548 0.4614 0.07095 0.30168 0.07095 0.60337 0.17746 0.88731 0.33718 0.56788 0.31943 1.047 0.79858 1.331 1.3842 0.14197 0.28394 0.24845 0.60337 0.30169 0.94055 0.01775 0.08874 0.01775 0.15972 0.0355 0.24845v0.10654 0.05327 0.05327 0.10654 0.14197c0 0.08874-0.01775 0.17746-0.01775 0.2662-0.01775 0.08874-0.01775 0.17746-0.0355 0.26619-0.01775 0.08874-0.03549 0.17746-0.05324 0.2662-0.0355 0.17746-0.10648 0.33718-0.15972 0.51464-0.12422 0.33718-0.30169 0.65662-0.51464 0.94055-0.42591 0.58563-1.0115 1.0648-1.6681 1.3665-0.33718 0.14197-0.67436 0.2662-1.0293 0.31943-0.17746 0.03548-0.35493 0.05327-0.53239 0.05327h-0.26621c0.01775 0 0 0 0 0h-0.01775c-0.08873 0-0.19521 0-0.28394-0.01779-0.39042-0.035472-0.7631-0.10648-1.1358-0.21296-0.37267-0.10647-0.7276-0.24844-1.0648-0.4259-0.67436-0.35493-1.2777-0.86957-1.7569-1.4552-0.2307-0.30168-0.44366-0.62112-0.62112-0.9583-0.17746-0.33717-0.30169-0.6921-0.40816-1.047-0.10648-0.35492-0.15972-0.72759-0.17746-1.1003v-0.40835-0.14197c0-0.17746 0.017749-0.37267 0.053235-0.56788 0.017748-0.1952 0.053235-0.37267 0.088733-0.56787 0.035497-0.19521 0.088733-0.37268 0.14197-0.56788 0.10648-0.37267 0.2307-0.72759 0.39042-1.0648 0.31943-0.67435 0.7276-1.2777 1.2067-1.7569 0.12422-0.12422 0.24845-0.2307 0.39042-0.33717 0.05324-0.053266 0.17746-0.15972 0.31943-0.24845 0.14197-0.088743 0.28394-0.17747 0.44366-0.24845 0.07098-0.035477 0.14197-0.070953 0.2307-0.10648 0.0355-0.01779 0.07098-0.035477 0.12422-0.053266 0.03549-0.01779 0.07098-0.035477 0.12422-0.053266 0.15972-0.070953 0.31943-0.12423 0.47915-0.17747 0.0355-0.017789 0.08873-0.017789 0.12422-0.035477 0.03549-0.017789 0.08873-0.017789 0.12422-0.035477 0.08873-0.017789 0.15972-0.035477 0.24845-0.070953 0.03549-0.01779 0.08873-0.01779 0.12422-0.035477 0.0355 0 0.08873-0.017789 0.12422-0.017789 0.03549 0 0.08873-0.017789 0.12422-0.017789l0.07098-0.017789 0.07099-0.01779c0.0355 0 0.08873-0.017789 0.12422-0.017789 0.05324 0 0.08873-0.017789 0.14197-0.017789 0.03549 0 0.10648-0.017687 0.14197-0.017687 0.0355 0 0.05324 0 0.08873-0.01779h0.12423c0.05324 0 0.08873 0 0.14197-0.017789h0.07098s0.01775 0 0 0h0.05325 0.12422 0.47915c0.31943 0.017789 0.63887 0.053266 0.94055 0.10648 0.60337 0.10647 1.189 0.30168 1.7036 0.56788 0.51464 0.24844 0.99379 0.56787 1.3842 0.90505 0.01775 0.017789 0.05324 0.035477 0.07098 0.070953 0.01775 0.01779 0.05324 0.035477 0.07098 0.070953 0.05324 0.035477 0.08873 0.088743 0.14197 0.12423 0.05324 0.035477 0.08873 0.088743 0.14197 0.12422 0.0355 0.053266 0.08873 0.088743 0.12422 0.14197 0.17746 0.17747 0.33718 0.37268 0.47915 0.55013 0.28394 0.37268 0.51464 0.74535 0.6921 1.1003 0.01775 0.017687 0.01775 0.035477 0.0355 0.070953 0.01775 0.01769 0.01775 0.03548 0.0355 0.07095 0.01775 0.03548 0.03549 0.08874 0.07098 0.12422 0.01775 0.03548 0.03549 0.08874 0.05324 0.12423 0.01775 0.03548 0.0355 0.08874 0.05324 0.12422 0.07098 0.15972 0.12422 0.31943 0.17746 0.47915 0.08873 0.24845 0.14197 0.4614 0.19521 0.63887 0.01775 0.07095 0.08873 0.12422 0.15972 0.12422 0.08873 0 0.14197-0.07095 0.14197-0.15972-0.01775-0.21295-0.01775-0.44365-0.0355-0.70985z"/></svg>
